<?xml version="1.0" encoding="UTF-8"?>
<!DOCTYPE svg PUBLIC "-//W3C//DTD SVG 1.1//EN" "http://www.w3.org/Graphics/SVG/1.1/DTD/svg11.dtd">
<svg xmlns="http://www.w3.org/2000/svg" version="1.1" width="480px" height="480px" style="shape-rendering:geometricPrecision; text-rendering:geometricPrecision; image-rendering:optimizeQuality; fill-rule:evenodd; clip-rule:evenodd" xmlns:xlink="http://www.w3.org/1999/xlink">
<g><path style="opacity:0.996" fill="#df7f94" d="M 429.5,107.5 C 426.595,115.585 421.262,121.751 413.5,126C 386.629,138.843 358.296,146.177 328.5,148C 297.397,150.411 266.397,149.578 235.5,145.5C 233.181,142.706 230.181,140.872 226.5,140C 220.175,139.5 213.842,139.334 207.5,139.5C 196.497,136.101 185.83,131.601 175.5,126C 168.592,121.927 163.258,116.427 159.5,109.5C 158.71,97.4423 163.71,88.609 174.5,83C 194.916,72.4761 216.582,65.8094 239.5,63C 278.547,58.0842 317.547,58.4175 356.5,64C 374.887,67.0126 392.554,72.3459 409.5,80C 418.069,84.026 424.569,90.1927 429,98.5C 429.498,101.482 429.665,104.482 429.5,107.5 Z"/></g>
<g><path style="opacity:1" fill="#c94f60" d="M 159.5,109.5 C 163.258,116.427 168.592,121.927 175.5,126C 185.83,131.601 196.497,136.101 207.5,139.5C 191.5,139.5 175.5,139.5 159.5,139.5C 159.5,129.5 159.5,119.5 159.5,109.5 Z"/></g>
<g><path style="opacity:1" fill="#c84f5f" d="M 429.5,107.5 C 429.5,137.5 429.5,167.5 429.5,197.5C 426.595,205.585 421.262,211.751 413.5,216C 392.642,226.382 370.642,233.049 347.5,236C 316.197,239.785 284.864,240.285 253.5,237.5C 253.667,213.164 253.5,188.831 253,164.5C 250.363,158.603 245.863,155.27 239.5,154.5C 238.977,151.122 237.644,148.122 235.5,145.5C 266.397,149.578 297.397,150.411 328.5,148C 358.296,146.177 386.629,138.843 413.5,126C 421.262,121.751 426.595,115.585 429.5,107.5 Z"/></g>
<g><path style="opacity:1" fill="#af2031" d="M 159.5,139.5 C 175.5,139.5 191.5,139.5 207.5,139.5C 213.842,139.334 220.175,139.5 226.5,140C 230.181,140.872 233.181,142.706 235.5,145.5C 237.644,148.122 238.977,151.122 239.5,154.5C 239.5,181.5 239.5,208.5 239.5,235.5C 239.5,265.5 239.5,295.5 239.5,325.5C 237.922,332.157 233.922,336.657 227.5,339C 204.836,339.5 182.169,339.667 159.5,339.5C 122.105,339.981 84.7719,339.481 47.5,338C 44.1575,335.473 41.6575,332.306 40,328.5C 39.3333,269.167 39.3333,209.833 40,150.5C 41.5,145 45,141.5 50.5,140C 86.8318,139.5 123.165,139.333 159.5,139.5 Z"/></g>
<g><path style="opacity:1" fill="#993c49" d="M 239.5,154.5 C 245.863,155.27 250.363,158.603 253,164.5C 253.5,188.831 253.667,213.164 253.5,237.5C 248.868,236.617 244.202,235.95 239.5,235.5C 239.5,208.5 239.5,181.5 239.5,154.5 Z"/></g>
<g><path style="opacity:1" fill="#fefcfc" d="M 128.5,189.5 C 136.42,189.185 144.253,189.518 152,190.5C 163.735,223.205 175.568,255.872 187.5,288.5C 180.524,289.664 173.524,289.831 166.5,289C 163.74,281.555 161.073,274.055 158.5,266.5C 145.833,265.167 133.167,265.167 120.5,266.5C 117.96,274.119 115.626,281.786 113.5,289.5C 106.159,289.666 98.8258,289.5 91.5,289C 103.976,255.882 116.31,222.715 128.5,189.5 Z"/></g>
<g><path style="opacity:1" fill="#ae2031" d="M 429.5,197.5 C 429.5,227.5 429.5,257.5 429.5,287.5C 426.595,295.585 421.262,301.751 413.5,306C 390.379,317.197 366.046,324.197 340.5,327C 311.506,330 282.506,330.167 253.5,327.5C 253.5,297.5 253.5,267.5 253.5,237.5C 284.864,240.285 316.197,239.785 347.5,236C 370.642,233.049 392.642,226.382 413.5,216C 421.262,211.751 426.595,205.585 429.5,197.5 Z"/></g>
<g><path style="opacity:1" fill="#b12836" d="M 152.5,248.5 C 143.833,249.833 135.167,249.833 126.5,248.5C 130.425,234.391 134.758,220.391 139.5,206.5C 144.242,220.392 148.576,234.392 152.5,248.5 Z"/></g>
<g><path style="opacity:1" fill="#931b29" d="M 239.5,235.5 C 244.202,235.95 248.868,236.617 253.5,237.5C 253.5,267.5 253.5,297.5 253.5,327.5C 248.728,327.295 244.062,326.628 239.5,325.5C 239.5,295.5 239.5,265.5 239.5,235.5 Z"/></g>
<g><path style="opacity:1" fill="#bf4f5c" d="M 126.5,248.5 C 135.167,249.833 143.833,249.833 152.5,248.5C 153.043,248.56 153.376,248.893 153.5,249.5C 144.167,250.833 134.833,250.833 125.5,249.5C 125.624,248.893 125.957,248.56 126.5,248.5 Z"/></g>
<g><path style="opacity:0.996" fill="#881321" d="M 429.5,287.5 C 429.667,318.502 429.5,349.502 429,380.5C 425.167,388.333 419.333,394.167 411.5,398C 387.351,409.038 362.018,415.704 335.5,418C 291.699,422.553 248.366,419.553 205.5,409C 189.734,405.368 175.9,398.202 164,387.5C 162.414,385.33 161.08,382.996 160,380.5C 159.5,371.506 159.334,362.506 159.5,353.5C 186.884,353.965 214.218,353.465 241.5,352C 251.199,346.767 255.199,338.6 253.5,327.5C 282.506,330.167 311.506,330 340.5,327C 366.046,324.197 390.379,317.197 413.5,306C 421.262,301.751 426.595,295.585 429.5,287.5 Z"/></g>
<g><path style="opacity:1" fill="#6e101b" d="M 239.5,325.5 C 244.062,326.628 248.728,327.295 253.5,327.5C 255.199,338.6 251.199,346.767 241.5,352C 214.218,353.465 186.884,353.965 159.5,353.5C 159.5,348.833 159.5,344.167 159.5,339.5C 182.169,339.667 204.836,339.5 227.5,339C 233.922,336.657 237.922,332.157 239.5,325.5 Z"/></g>
</svg>
