<?xml version="1.0" encoding="UTF-8"?>
<!DOCTYPE svg PUBLIC "-//W3C//DTD SVG 1.1//EN" "http://www.w3.org/Graphics/SVG/1.1/DTD/svg11.dtd">
<svg xmlns="http://www.w3.org/2000/svg" version="1.1" width="480px" height="480px" style="shape-rendering:geometricPrecision; text-rendering:geometricPrecision; image-rendering:optimizeQuality; fill-rule:evenodd; clip-rule:evenodd" xmlns:xlink="http://www.w3.org/1999/xlink">
<g><path style="opacity:0.99" fill="#009688" d="M 107.5,139.5 C 135.078,136.978 160.744,142.811 184.5,157C 205.796,170.624 224.296,187.457 240,207.5C 260.667,179.817 286.833,159.317 318.5,146C 364.05,131.012 403.217,140.846 436,175.5C 461.713,209.213 466.713,245.88 451,285.5C 434.547,319.326 407.713,339.493 370.5,346C 340.033,349.064 312.366,341.73 287.5,324C 269.545,310.767 253.378,295.6 239,278.5C 218.122,305.843 191.955,326.343 160.5,340C 113.934,355.319 74.4337,344.819 42,308.5C 17.2583,274.858 12.5916,238.524 28,199.5C 44.5995,166.293 71.0995,146.293 107.5,139.5 Z M 121.5,179.5 C 139.441,180.803 155.774,186.636 170.5,197C 187.729,209.728 202.395,224.895 214.5,242.5C 199.183,263.653 180.516,281.153 158.5,295C 128.434,311.012 100.934,307.512 76,284.5C 58.8066,262.742 55.8066,239.075 67,213.5C 79.2549,192.626 97.4216,181.292 121.5,179.5 Z M 354.5,179.5 C 385.588,181.432 406.088,197.099 416,226.5C 422.121,258.855 410.954,283.021 382.5,299C 366.349,306.12 350.016,306.786 333.5,301C 324.228,297.365 315.561,292.699 307.5,287C 291.277,273.944 276.943,259.111 264.5,242.5C 276.943,225.889 291.277,211.056 307.5,198C 321.618,187.578 337.285,181.411 354.5,179.5 Z"/></g>
<g><path style="opacity:1" fill="#009687" d="M 339.5,209.5 C 346.167,209.5 352.833,209.5 359.5,209.5C 359.5,216.167 359.5,222.833 359.5,229.5C 366.167,229.5 372.833,229.5 379.5,229.5C 379.5,236.167 379.5,242.833 379.5,249.5C 372.833,249.5 366.167,249.5 359.5,249.5C 359.5,256.167 359.5,262.833 359.5,269.5C 352.833,269.5 346.167,269.5 339.5,269.5C 339.5,262.833 339.5,256.167 339.5,249.5C 332.833,249.5 326.167,249.5 319.5,249.5C 319.5,242.833 319.5,236.167 319.5,229.5C 326.167,229.5 332.833,229.5 339.5,229.5C 339.5,222.833 339.5,216.167 339.5,209.5 Z"/></g>
<g><path style="opacity:1" fill="#009687" d="M 99.5,229.5 C 119.5,229.5 139.5,229.5 159.5,229.5C 159.5,236.167 159.5,242.833 159.5,249.5C 139.5,249.5 119.5,249.5 99.5,249.5C 99.5,242.833 99.5,236.167 99.5,229.5 Z"/></g>
</svg>
