<svg version="1.1" id="Layer_1" xmlns="http://www.w3.org/2000/svg" xmlns:xlink="http://www.w3.org/1999/xlink" x="0px" y="0px"
	 width="100%" viewBox="0 0 512 512" enable-background="new 0 0 512 512" xml:space="preserve">
<path fill="#DCD732" opacity="1.000000" stroke="none" 
	d="
M1.000001,279.000000 
	C1.000000,264.645782 1.000000,250.291550 1.362900,235.249619 
	C2.484106,227.867142 2.991597,221.132584 4.045596,214.484680 
	C7.916028,190.072754 15.365074,166.726120 26.233728,144.565750 
	C36.028397,124.595146 48.157372,106.136986 62.956833,89.388725 
	C77.028442,73.464157 92.338348,59.000351 109.741158,46.820511 
	C126.865356,34.835651 145.149231,25.030144 164.733917,17.575710 
	C183.489319,10.436920 202.699417,5.359103 222.627548,2.965766 
	C226.770630,2.468188 230.876816,1.663276 235.000000,1.000001 
	C249.354233,1.000000 263.708466,1.000000 278.750366,1.362894 
	C286.132874,2.484099 292.867401,2.991592 299.515320,4.045597 
	C323.927216,7.916020 347.273834,15.365062 369.434174,26.233681 
	C389.404785,36.028347 407.862976,48.157265 424.611206,62.956749 
	C440.535706,77.028381 454.999634,92.338188 467.179413,109.741035 
	C479.164215,126.865250 488.969849,145.149048 496.424164,164.733765 
	C503.562836,183.489182 508.641022,202.699203 511.034210,222.627365 
	C511.531769,226.770508 512.336731,230.876755 513.000000,235.000000 
	C513.000000,235.444443 513.000000,235.888901 512.654785,236.639603 
	C510.658234,235.587311 508.880707,234.355209 507.374390,232.851501 
	C478.019348,203.546722 448.703461,174.202744 419.344269,144.902161 
	C417.845947,143.406830 416.030548,142.229233 414.093964,140.528915 
	C411.860657,139.975204 409.896545,139.645020 407.931610,139.639984 
	C378.304291,139.563873 348.676849,139.530533 318.996521,139.173523 
	C312.109161,131.883316 305.335693,124.845528 298.414734,117.955856 
	C294.924011,114.480850 291.166046,111.274239 287.254089,107.623138 
	C278.957886,108.531586 270.911713,109.620941 262.919281,111.017784 
	C210.327042,120.209442 157.763016,129.564865 105.134064,138.540146 
	C100.319778,139.361176 99.860924,141.323776 99.868576,145.292099 
	C99.964966,195.268387 99.931847,245.244904 99.931854,295.221375 
	C99.931854,320.043030 99.889778,344.864868 100.017639,369.685883 
	C100.027122,371.527313 101.257492,373.362488 101.980736,375.530701 
	C103.444244,377.485870 104.750931,379.207214 106.264420,380.721954 
	C148.500275,422.992767 190.765289,465.234467 232.978470,507.527893 
	C234.559479,509.111877 235.670135,511.165314 237.000000,513.000000 
	C236.555557,513.000000 236.111099,513.000000 235.114227,512.637146 
	C227.866959,511.515961 221.132339,511.008514 214.484406,509.954437 
	C190.072525,506.083862 166.725891,498.634827 144.565536,487.766144 
	C124.594963,477.971436 106.136833,465.842468 89.388618,451.042999 
	C73.464050,436.971405 59.000217,421.661560 46.820415,404.258759 
	C34.835602,387.134552 25.030090,368.850677 17.575676,349.266022 
	C10.436900,330.510651 5.359106,311.300537 2.965767,291.372467 
	C2.468190,287.229370 1.663278,283.123199 1.000001,279.000000 
z"/>
<path fill="#A0AF32" opacity="1.000000" stroke="none" 
	d="
M414.362793,140.903687 
	C416.030548,142.229233 417.845947,143.406830 419.344269,144.902161 
	C448.703461,174.202744 478.019348,203.546722 507.374390,232.851501 
	C508.880707,234.355209 510.658234,235.587311 512.654785,236.972931 
	C513.000000,250.687561 513.000000,264.375122 512.626343,278.735962 
	C510.277893,292.021942 508.923859,304.770477 506.198547,317.218842 
	C500.596924,342.805206 490.411621,366.634033 476.976196,389.127930 
	C460.631165,416.493164 439.570618,439.744476 414.730743,459.436401 
	C395.947937,474.326569 375.232361,486.219482 352.821472,495.040741 
	C332.957184,502.859650 312.573669,508.516724 291.339081,511.013275 
	C287.205322,511.499268 283.111969,512.328857 279.000000,513.000000 
	C265.312439,513.000000 251.624878,513.000000 237.468658,513.000000 
	C235.670135,511.165314 234.559479,509.111877 232.978470,507.527893 
	C190.765289,465.234467 148.500275,422.992767 106.264420,380.721954 
	C104.750931,379.207214 103.444244,377.485870 102.396500,375.446167 
	C153.382095,383.856354 204.012604,392.679871 254.642487,401.506989 
	C265.242767,403.355103 275.840729,405.216400 287.165863,407.198700 
	C287.165863,404.441010 287.165863,402.323181 287.165863,400.205322 
	C287.165863,305.104980 287.163269,210.004654 287.181030,114.904312 
	C287.181458,112.584938 287.407898,110.265617 287.528931,107.946274 
	C291.166046,111.274239 294.924011,114.480850 298.414734,117.955856 
	C305.335693,124.845528 312.109161,131.883316 318.532593,139.259766 
	C312.152435,139.693542 306.180145,139.854019 300.215302,139.709061 
	C297.137848,139.634262 296.150421,140.841064 296.225281,143.795929 
	C296.393250,150.425385 296.334717,157.060577 296.381531,164.115005 
	C296.375702,174.886642 296.356781,185.236710 296.320923,196.080536 
	C296.312042,202.782852 296.320160,208.991394 296.367615,215.655670 
	C296.376465,226.417068 296.345947,236.722748 296.335510,247.494843 
	C296.342163,254.298019 296.328705,260.634827 296.346863,267.443848 
	C296.361633,278.210693 296.344849,288.505341 296.313629,299.280579 
	C296.312256,305.978455 296.325317,312.195740 296.380737,318.853882 
	C296.404541,329.631866 296.386047,339.969025 296.358002,350.818115 
	C296.348480,358.771667 296.348480,366.213226 296.348480,373.869446 
	C335.824158,373.869446 374.667175,373.869446 414.049438,373.869446 
	C414.049438,371.386475 414.049438,369.258453 414.049438,367.130432 
	C414.049469,293.876129 414.046783,220.621796 414.062592,147.367477 
	C414.063049,145.212875 414.258362,143.058289 414.362793,140.903687 
z"/>
<path fill="#FFFFFF" opacity="1.000000" stroke="none" 
	d="
M234.531342,1.000001 
	C230.876816,1.663276 226.770630,2.468188 222.627548,2.965766 
	C202.699417,5.359103 183.489319,10.436920 164.733917,17.575710 
	C145.149231,25.030144 126.865356,34.835651 109.741158,46.820511 
	C92.338348,59.000351 77.028442,73.464157 62.956833,89.388725 
	C48.157372,106.136986 36.028397,124.595146 26.233728,144.565750 
	C15.365074,166.726120 7.916028,190.072754 4.045596,214.484680 
	C2.991597,221.132584 2.484106,227.867142 1.362900,234.780960 
	C1.000000,157.072952 1.000000,79.145912 1.000000,1.000000 
	C78.687424,1.000000 156.375061,1.000000 234.531342,1.000001 
z"/>
<path fill="#FFFFFF" opacity="1.000000" stroke="none" 
	d="
M513.000000,234.531342 
	C512.336731,230.876755 511.531769,226.770508 511.034210,222.627365 
	C508.641022,202.699203 503.562836,183.489182 496.424164,164.733765 
	C488.969849,145.149048 479.164215,126.865250 467.179413,109.741035 
	C454.999634,92.338188 440.535706,77.028381 424.611206,62.956749 
	C407.862976,48.157265 389.404785,36.028347 369.434174,26.233681 
	C347.273834,15.365062 323.927216,7.916020 299.515320,4.045597 
	C292.867401,2.991592 286.132874,2.484099 279.219055,1.362894 
	C356.927032,1.000000 434.854095,1.000000 513.000000,1.000000 
	C513.000000,78.687424 513.000000,156.375061 513.000000,234.531342 
z"/>
<path fill="#FFFFFF" opacity="1.000000" stroke="none" 
	d="
M279.468658,513.000000 
	C283.111969,512.328857 287.205322,511.499268 291.339081,511.013275 
	C312.573669,508.516724 332.957184,502.859650 352.821472,495.040741 
	C375.232361,486.219482 395.947937,474.326569 414.730743,459.436401 
	C439.570618,439.744476 460.631165,416.493164 476.976196,389.127930 
	C490.411621,366.634033 500.596924,342.805206 506.198547,317.218842 
	C508.923859,304.770477 510.277893,292.021942 512.626343,279.204651 
	C513.000000,356.927032 513.000000,434.854095 513.000000,513.000000 
	C435.312561,513.000000 357.624939,513.000000 279.468658,513.000000 
z"/>
<path fill="#FFFFFF" opacity="1.000000" stroke="none" 
	d="
M1.000001,279.468658 
	C1.663278,283.123199 2.468190,287.229370 2.965767,291.372467 
	C5.359106,311.300537 10.436900,330.510651 17.575676,349.266022 
	C25.030090,368.850677 34.835602,387.134552 46.820415,404.258759 
	C59.000217,421.661560 73.464050,436.971405 89.388618,451.042999 
	C106.136833,465.842468 124.594963,477.971436 144.565536,487.766144 
	C166.725891,498.634827 190.072525,506.083862 214.484406,509.954437 
	C221.132339,511.008514 227.866959,511.515961 234.780884,512.637146 
	C157.072968,513.000000 79.145927,513.000000 1.000000,513.000000 
	C1.000000,435.312561 1.000000,357.624939 1.000001,279.468658 
z"/>
<path fill="#006941" opacity="1.000000" stroke="none" 
	d="
M287.254059,107.623138 
	C287.407898,110.265617 287.181458,112.584938 287.181030,114.904312 
	C287.163269,210.004654 287.165863,305.104980 287.165863,400.205322 
	C287.165863,402.323181 287.165863,404.441010 287.165863,407.198700 
	C275.840729,405.216400 265.242767,403.355103 254.642487,401.506989 
	C204.012604,392.679871 153.382095,383.856354 102.336044,375.116058 
	C101.257492,373.362488 100.027122,371.527313 100.017639,369.685883 
	C99.889778,344.864868 99.931854,320.043030 99.931854,295.221375 
	C99.931847,245.244904 99.964966,195.268387 99.868576,145.292099 
	C99.860924,141.323776 100.319778,139.361176 105.134064,138.540146 
	C157.763016,129.564865 210.327042,120.209442 262.919281,111.017784 
	C270.911713,109.620941 278.957886,108.531586 287.254059,107.623138 
M189.495682,236.946014 
	C184.701706,228.591782 179.945282,220.215500 175.070358,211.908768 
	C174.395325,210.758545 173.166626,209.157654 172.139679,209.116196 
	C165.760910,208.858597 159.366577,208.986481 152.316315,208.986481 
	C153.470993,211.194153 154.183182,212.646713 154.974609,214.054779 
	C162.140503,226.804260 169.176392,239.630585 176.592239,252.233246 
	C178.563263,255.582901 178.334335,257.966705 176.463776,261.161560 
	C170.083267,272.059326 164.014709,283.139709 157.824005,294.148651 
	C155.166031,298.875336 152.500412,303.597717 149.453476,309.004913 
	C155.855667,309.004913 161.457367,308.824432 167.039246,309.078888 
	C169.954788,309.211823 171.476639,308.169434 172.836838,305.666443 
	C178.212830,295.773773 183.808640,286.000610 189.613770,275.665314 
	C195.423508,285.961823 200.914352,295.817078 206.570358,305.576599 
	C207.370407,306.957123 208.925552,308.776764 210.216019,308.847626 
	C216.438492,309.189117 222.690002,309.001312 229.617355,309.001312 
	C228.497559,306.857147 227.790497,305.412628 227.004517,304.012329 
	C218.951324,289.664642 211.024399,275.242828 202.721375,261.040985 
	C200.740845,257.653412 200.926590,255.318237 202.829193,252.052933 
	C210.441986,238.987396 217.734589,225.735168 225.124939,212.540405 
	C225.705124,211.504547 226.125931,210.379425 226.773514,208.961441 
	C220.678680,208.961441 215.181168,209.110596 209.697479,208.899948 
	C206.855881,208.790802 205.248688,209.646637 203.849716,212.249939 
	C199.447449,220.441986 194.705811,228.451675 189.495682,236.946014 
z"/>
<path fill="#016A42" opacity="1.000000" stroke="none" 
	d="
M296.315277,266.971619 
	C296.328705,260.634827 296.342163,254.298019 296.770203,247.563721 
	C306.638397,247.166199 316.092010,247.166199 325.643250,247.166199 
	C325.643250,236.283081 325.643250,225.747955 325.643250,215.199951 
	C315.630585,215.199951 305.979431,215.199951 296.328247,215.199951 
	C296.320160,208.991394 296.312042,202.782852 296.756897,196.149048 
	C306.659637,195.723801 316.109436,195.723801 325.642120,195.723801 
	C325.642120,184.761215 325.642120,174.237747 325.642120,163.693436 
	C315.640381,163.693436 306.004395,163.693436 296.368378,163.693436 
	C296.334717,157.060577 296.393250,150.425385 296.225281,143.795929 
	C296.150421,140.841064 297.137848,139.634262 300.215302,139.709061 
	C306.180145,139.854019 312.152435,139.693542 318.585541,139.573395 
	C348.676849,139.530533 378.304291,139.563873 407.931610,139.639984 
	C409.896545,139.645020 411.860657,139.975204 414.093964,140.528931 
	C414.258362,143.058289 414.063049,145.212875 414.062592,147.367477 
	C414.046783,220.621796 414.049469,293.876129 414.049438,367.130432 
	C414.049438,369.258453 414.049438,371.386475 414.049438,373.869446 
	C374.667175,373.869446 335.824158,373.869446 296.348480,373.869446 
	C296.348480,366.213226 296.348480,358.771667 296.789795,350.910828 
	C306.689026,350.491608 316.146973,350.491608 325.633667,350.491608 
	C325.633667,339.531006 325.633667,328.994385 325.633667,318.413055 
	C315.619232,318.413055 305.978821,318.413055 296.338409,318.413055 
	C296.325317,312.195740 296.312256,305.978455 296.750488,299.334625 
	C306.654358,298.908112 316.106964,298.908112 325.647461,298.908112 
	C325.647461,287.975525 325.647461,277.438660 325.647461,266.971619 
	C315.631622,266.971619 305.973450,266.971619 296.315277,266.971619 
M342.910553,318.226776 
	C342.294708,319.009521 341.152802,319.785706 341.142944,320.576050 
	C341.020599,330.378082 341.063049,340.182190 341.063049,350.234070 
	C358.457916,350.234070 375.508850,350.234070 392.532593,350.234070 
	C392.532593,339.464172 392.532593,329.050568 392.532593,318.208221 
	C376.092957,318.208221 359.970001,318.208221 342.910553,318.226776 
M346.722229,163.412811 
	C344.938507,163.412811 343.154755,163.412811 341.317749,163.412811 
	C341.317749,174.460724 341.317749,184.880966 341.317749,195.369354 
	C358.602142,195.369354 375.619415,195.369354 392.669373,195.369354 
	C392.669373,184.650436 392.669373,174.357895 392.669373,163.412827 
	C377.553955,163.412827 362.613525,163.412827 346.722229,163.412811 
M392.839874,282.501251 
	C392.839874,277.395142 392.839874,272.289032 392.839874,267.169525 
	C375.274139,267.169525 358.274719,267.169525 341.420044,267.169525 
	C341.420044,277.960754 341.420044,288.346222 341.420044,298.656372 
	C358.664612,298.656372 375.553070,298.656372 392.839874,298.656372 
	C392.839874,293.411652 392.839874,288.454468 392.839874,282.501251 
M380.482117,215.046539 
	C367.417969,215.046539 354.353821,215.046539 341.381378,215.046539 
	C341.381378,226.161224 341.381378,236.562653 341.381378,246.950607 
	C358.594482,246.950607 375.490204,246.950607 392.578552,246.950607 
	C392.578552,236.280685 392.578552,225.894379 392.578552,215.046539 
	C388.711243,215.046539 385.091949,215.046539 380.482117,215.046539 
z"/>
<path fill="#FAFCFB" opacity="1.000000" stroke="none" 
	d="
M296.380737,318.853882 
	C305.978821,318.413055 315.619232,318.413055 325.633667,318.413055 
	C325.633667,328.994385 325.633667,339.531006 325.633667,350.491608 
	C316.146973,350.491608 306.689026,350.491608 296.799316,350.398895 
	C296.386047,339.969025 296.404541,329.631866 296.380737,318.853882 
z"/>
<path fill="#FAFCFB" opacity="1.000000" stroke="none" 
	d="
M296.381531,164.115005 
	C306.004395,163.693436 315.640381,163.693436 325.642120,163.693436 
	C325.642120,174.237747 325.642120,184.761215 325.642120,195.723801 
	C316.109436,195.723801 306.659637,195.723801 296.773865,195.655289 
	C296.356781,185.236710 296.375702,174.886642 296.381531,164.115005 
z"/>
<path fill="#FCFDFC" opacity="1.000000" stroke="none" 
	d="
M296.346863,267.443848 
	C305.973450,266.971619 315.631622,266.971619 325.647461,266.971619 
	C325.647461,277.438660 325.647461,287.975525 325.647461,298.908112 
	C316.106964,298.908112 306.654358,298.908112 296.764923,298.854065 
	C296.344849,288.505341 296.361633,278.210693 296.346863,267.443848 
z"/>
<path fill="#FCFDFC" opacity="1.000000" stroke="none" 
	d="
M296.367615,215.655670 
	C305.979431,215.199951 315.630585,215.199951 325.643250,215.199951 
	C325.643250,225.747955 325.643250,236.283081 325.643250,247.166199 
	C316.092010,247.166199 306.638397,247.166199 296.750092,247.097321 
	C296.345947,236.722748 296.376465,226.417068 296.367615,215.655670 
z"/>
<path fill="#FCFDFD" opacity="1.000000" stroke="none" 
	d="
M189.795609,236.738983 
	C194.705811,228.451675 199.447449,220.441986 203.849716,212.249939 
	C205.248688,209.646637 206.855881,208.790802 209.697479,208.899948 
	C215.181168,209.110596 220.678680,208.961441 226.773514,208.961441 
	C226.125931,210.379425 225.705124,211.504547 225.124939,212.540405 
	C217.734589,225.735168 210.441986,238.987396 202.829193,252.052933 
	C200.926590,255.318237 200.740845,257.653412 202.721375,261.040985 
	C211.024399,275.242828 218.951324,289.664642 227.004517,304.012329 
	C227.790497,305.412628 228.497559,306.857147 229.617355,309.001312 
	C222.690002,309.001312 216.438492,309.189117 210.216019,308.847626 
	C208.925552,308.776764 207.370407,306.957123 206.570358,305.576599 
	C200.914352,295.817078 195.423508,285.961823 189.613770,275.665314 
	C183.808640,286.000610 178.212830,295.773773 172.836838,305.666443 
	C171.476639,308.169434 169.954788,309.211823 167.039246,309.078888 
	C161.457367,308.824432 155.855667,309.004913 149.453476,309.004913 
	C152.500412,303.597717 155.166031,298.875336 157.824005,294.148651 
	C164.014709,283.139709 170.083267,272.059326 176.463776,261.161560 
	C178.334335,257.966705 178.563263,255.582901 176.592239,252.233246 
	C169.176392,239.630585 162.140503,226.804260 154.974609,214.054779 
	C154.183182,212.646713 153.470993,211.194153 152.316315,208.986481 
	C159.366577,208.986481 165.760910,208.858597 172.139679,209.116196 
	C173.166626,209.157654 174.395325,210.758545 175.070358,211.908768 
	C179.945282,220.215500 184.701706,228.591782 189.795609,236.738983 
z"/>
<path fill="#F7FBF9" opacity="1.000000" stroke="none" 
	d="
M343.378815,318.217499 
	C359.970001,318.208221 376.092957,318.208221 392.532593,318.208221 
	C392.532593,329.050568 392.532593,339.464172 392.532593,350.234070 
	C375.508850,350.234070 358.457916,350.234070 341.063049,350.234070 
	C341.063049,340.182190 341.020599,330.378082 341.142944,320.576050 
	C341.152802,319.785706 342.294708,319.009521 343.378815,318.217499 
z"/>
<path fill="#F7FBF9" opacity="1.000000" stroke="none" 
	d="
M347.197632,163.412811 
	C362.613525,163.412827 377.553955,163.412827 392.669373,163.412827 
	C392.669373,174.357895 392.669373,184.650436 392.669373,195.369354 
	C375.619415,195.369354 358.602142,195.369354 341.317749,195.369354 
	C341.317749,184.880966 341.317749,174.460724 341.317749,163.412811 
	C343.154755,163.412811 344.938507,163.412811 347.197632,163.412811 
z"/>
<path fill="#FCFEFD" opacity="1.000000" stroke="none" 
	d="
M392.839874,282.999268 
	C392.839874,288.454468 392.839874,293.411652 392.839874,298.656372 
	C375.553070,298.656372 358.664612,298.656372 341.420044,298.656372 
	C341.420044,288.346222 341.420044,277.960754 341.420044,267.169525 
	C358.274719,267.169525 375.274139,267.169525 392.839874,267.169525 
	C392.839874,272.289032 392.839874,277.395142 392.839874,282.999268 
z"/>
<path fill="#FCFEFD" opacity="1.000000" stroke="none" 
	d="
M380.977386,215.046539 
	C385.091949,215.046539 388.711243,215.046539 392.578552,215.046539 
	C392.578552,225.894379 392.578552,236.280685 392.578552,246.950607 
	C375.490204,246.950607 358.594482,246.950607 341.381378,246.950607 
	C341.381378,236.562653 341.381378,226.161224 341.381378,215.046539 
	C354.353821,215.046539 367.417969,215.046539 380.977386,215.046539 
z"/>
</svg>