<?xml version="1.0" standalone="no"?>
<!DOCTYPE svg PUBLIC "-//W3C//DTD SVG 20010904//EN"
 "http://www.w3.org/TR/2001/REC-SVG-20010904/DTD/svg10.dtd">
<svg version="1.0" xmlns="http://www.w3.org/2000/svg"
 width="512.000000pt" height="512.000000pt" viewBox="0 0 512.000000 512.000000"
 preserveAspectRatio="xMidYMid meet">

<g transform="translate(0.000000,512.000000) scale(0.100000,-0.100000)"
fill="#000000" stroke="none">
<path d="M192 3845 c-83 -26 -153 -93 -172 -166 -7 -24 -9 -421 -8 -1141 3
-1007 4 -1106 20 -1133 26 -47 79 -96 128 -119 43 -20 62 -21 538 -24 l492 -3
0 -450 c0 -384 2 -455 16 -487 19 -47 58 -88 109 -115 l40 -22 1795 0 1795 0
40 22 c22 11 52 34 67 50 58 61 55 3 63 1201 l8 1102 -987 0 -986 0 0 595 0
595 -276 0 -276 0 -48 43 c-26 24 -66 49 -88 55 -61 19 -2211 16 -2270 -3z
m922 -687 c30 -57 92 -176 138 -265 l84 -162 123 243 c68 133 131 252 140 264
16 22 22 22 167 20 l151 -3 -208 -340 c-115 -187 -209 -346 -209 -354 0 -7 95
-171 211 -363 116 -193 213 -357 216 -364 4 -12 -20 -14 -153 -12 l-159 3
-142 260 c-78 143 -146 266 -150 273 -5 9 -55 -81 -145 -262 l-138 -276 -150
0 c-82 0 -150 4 -150 9 0 5 95 167 211 361 179 300 209 357 201 375 -5 11 -98
170 -206 353 -108 182 -196 334 -196 337 0 3 70 5 154 5 l155 0 55 -102z"/>
</g>
</svg>
