<svg version="1.1" id="Layer_1" xmlns="http://www.w3.org/2000/svg" xmlns:xlink="http://www.w3.org/1999/xlink" x="0px" y="0px"
	 width="100%" viewBox="0 0 512 512" enable-background="new 0 0 512 512" xml:space="preserve">
<path fill="#2E7D32" opacity="1.000000" stroke="none" 
	d="
M1.000000,439.000000 
	C1.000000,317.977356 1.000000,196.954727 1.335577,75.360138 
	C4.246446,69.581764 7.942202,65.953896 14.000875,64.909729 
	C26.785919,62.706333 39.540363,60.317703 52.283146,57.878567 
	C70.918213,54.311577 89.511986,50.526627 108.160492,47.032722 
	C126.830147,43.534866 145.559372,40.355812 164.236008,36.894123 
	C177.787811,34.382320 191.292297,31.616238 204.825455,29.002748 
	C218.362488,26.388515 231.881714,23.667685 245.460464,21.288807 
	C255.074036,19.604595 264.734924,17.934580 274.446777,17.145296 
	C282.747559,16.470688 288.971039,23.189674 288.999786,31.529432 
	C289.056610,48.013664 289.110535,64.497910 289.094452,81.447144 
	C289.033508,102.901810 289.043762,123.891479 289.042175,145.357086 
	C289.038239,156.261642 289.046112,166.690277 289.030792,177.579575 
	C289.023071,188.320557 289.038574,198.600845 289.042206,209.357086 
	C289.038239,220.261642 289.046112,230.690277 289.030792,241.579575 
	C289.023071,252.320557 289.038574,262.600861 289.042206,273.357117 
	C289.038239,284.261688 289.046112,294.690277 289.030792,305.579590 
	C289.023071,316.320587 289.038574,326.600861 289.042236,337.357117 
	C289.038269,348.261688 289.046143,358.690277 289.030823,369.579590 
	C289.060303,391.032745 289.113007,412.025208 289.093048,433.480225 
	C289.013702,450.087402 289.040466,466.232178 288.955688,482.376373 
	C288.945679,484.280029 288.688354,486.343994 287.922028,488.054230 
	C284.493378,495.706482 276.191467,498.877930 266.576538,496.843689 
	C253.581131,494.094238 240.555557,491.469086 227.494156,489.054321 
	C210.259552,485.868042 192.952591,483.071960 175.723755,479.856171 
	C160.913559,477.091797 146.197571,473.823090 131.388611,471.051605 
	C114.162743,467.827759 96.860619,465.012390 79.628998,461.817993 
	C60.824142,458.331940 42.092590,454.444733 23.268066,451.073090 
	C14.387333,449.482483 5.658514,448.140900 1.000000,439.000000 
M98.501030,219.010025 
	C108.569130,230.530655 118.637230,242.051285 128.850998,253.738602 
	C127.766197,255.220764 126.827446,256.572113 125.819672,257.869873 
	C112.439674,275.099701 98.951904,292.247528 85.758606,309.618988 
	C83.541313,312.538544 81.803497,316.289917 81.218735,319.880798 
	C80.121391,326.619232 84.459518,332.964752 90.944016,335.696381 
	C97.621758,338.509430 104.749146,336.771912 109.751129,330.596832 
	C116.353218,322.446411 122.657387,314.054901 129.101501,305.776276 
	C136.133072,296.742950 143.178223,287.720184 150.381805,278.482056 
	C151.819336,280.052704 152.959122,281.251740 154.048309,282.495056 
	C168.098633,298.533600 182.076431,314.636322 196.214828,330.596771 
	C203.058731,338.322662 212.698395,339.106323 219.645309,332.850830 
	C226.493973,326.683807 226.794952,317.352570 220.271362,309.644135 
	C215.967545,304.558624 211.514084,299.599762 207.128067,294.583832 
	C194.970810,280.680511 182.813782,266.777008 170.528595,252.727127 
	C171.681870,251.186646 172.642883,249.861053 173.646576,248.568619 
	C189.172058,228.576767 204.674042,208.566544 220.255386,188.618301 
	C223.693970,184.216019 225.909531,179.524933 224.607513,173.858521 
	C223.090683,167.257233 218.945389,162.934418 212.327515,161.464844 
	C205.424438,159.931900 199.929962,162.632187 195.695877,168.066284 
	C181.366516,186.456802 167.069763,204.872726 152.749680,223.270493 
	C151.563828,224.794006 150.296326,226.253998 148.864807,227.988174 
	C135.655624,212.886871 122.890533,198.178665 109.989586,183.590607 
	C103.093636,175.792862 93.589806,174.843643 86.548058,180.966995 
	C79.467918,187.123718 79.166977,196.640427 85.882797,204.537842 
	C89.875206,209.232697 93.975304,213.835968 98.501030,219.010025 
z"/>
<path fill="#ECEFF1" opacity="1.000000" stroke="none" 
	d="
M289.054047,144.881149 
	C289.043762,123.891479 289.033508,102.901810 289.552582,81.451370 
	C358.643280,80.993843 427.204773,81.044144 495.765900,80.919456 
	C501.880188,80.908333 506.858856,82.373657 510.647766,87.304581 
	C511.211853,88.038734 512.205200,88.443085 513.000000,89.000000 
	C513.000000,200.687561 513.000000,312.375122 512.678223,424.622681 
	C507.187469,431.915802 500.255859,433.170898 492.076019,433.141388 
	C424.439972,432.897400 356.802643,433.011780 289.165680,433.017670 
	C289.113007,412.025208 289.060303,391.032745 289.493591,369.530121 
	C305.440552,369.012238 320.901611,369.033905 336.362488,368.983795 
	C343.546234,368.960510 348.893097,365.698883 351.721680,359.096802 
	C356.284637,348.446594 348.511993,337.205780 336.428680,337.046509 
	C320.639160,336.838379 304.845795,336.922668 289.054077,336.881165 
	C289.038574,326.600861 289.023071,316.320587 289.493591,305.530121 
	C305.440552,305.012238 320.901611,305.033905 336.362488,304.983795 
	C343.546234,304.960510 348.893097,301.698883 351.721680,295.096832 
	C356.284637,284.446594 348.511993,273.205719 336.428680,273.046448 
	C320.639160,272.838287 304.845795,272.922638 289.054077,272.881165 
	C289.038574,262.600861 289.023071,252.320557 289.493561,241.530106 
	C305.440552,241.012238 320.901642,241.033890 336.362518,240.983765 
	C343.546295,240.960464 348.893097,237.698807 351.721680,231.096786 
	C356.284668,220.446640 348.511993,209.205765 336.428650,209.046463 
	C320.639130,208.838303 304.845764,208.922653 289.054047,208.881149 
	C289.038574,198.600845 289.023071,188.320557 289.493591,177.530121 
	C305.440552,177.012238 320.901642,177.033890 336.362518,176.983765 
	C343.546295,176.960464 348.893066,173.698807 351.721680,167.096786 
	C356.284668,156.446640 348.511993,145.205795 336.428650,145.046494 
	C320.639130,144.838333 304.845764,144.922653 289.054047,144.881149 
M421.494232,144.995895 
	C414.501007,145.008911 407.499512,144.812241 400.516632,145.087738 
	C391.688690,145.436020 385.085541,152.367828 385.026581,160.889130 
	C384.966248,169.609085 391.743042,176.744736 400.769318,176.929901 
	C411.587769,177.151825 422.417786,177.152313 433.236206,176.929504 
	C442.261261,176.743637 449.036682,169.603943 448.973450,160.883606 
	C448.911652,152.361862 442.304474,145.536758 433.478302,145.064926 
	C429.825012,144.869629 426.153900,145.008804 421.494232,144.995895 
M448.973480,225.410980 
	C448.252136,215.182861 442.111908,209.135666 432.063934,209.022995 
	C422.095093,208.911209 412.123383,208.925415 402.154144,209.018295 
	C392.049835,209.112427 384.917816,215.928528 385.026581,225.192810 
	C385.132935,234.249619 392.197876,240.893143 402.017578,240.982574 
	C411.820679,241.071869 421.625458,241.045486 431.429077,240.991501 
	C441.456940,240.936310 447.001556,236.218933 448.973480,225.410980 
M388.984039,278.541168 
	C384.598145,283.978180 383.638641,289.927917 386.829529,296.193268 
	C390.017517,302.452942 395.456573,305.059418 402.369476,305.017609 
	C412.012848,304.959259 421.657074,305.042542 431.300537,304.993042 
	C441.818909,304.939087 449.054657,298.293823 448.973419,288.861053 
	C448.893829,279.614624 441.755219,273.083862 431.497742,273.011566 
	C421.854462,272.943604 412.209930,273.051727 402.566803,272.974426 
	C397.500671,272.933838 393.085480,274.366028 388.984039,278.541168 
M432.199829,369.001556 
	C442.526489,368.381958 449.301300,361.678467 448.964935,352.412903 
	C448.636536,343.366272 441.574860,337.081757 431.501099,337.011566 
	C421.840302,336.944214 412.178345,336.944061 402.517548,337.011383 
	C392.233826,337.083038 385.088135,343.627472 385.026581,352.893768 
	C384.963776,362.344391 392.200256,368.943146 402.781067,368.994110 
	C412.275482,369.039825 421.770355,369.003693 432.199829,369.001556 
z"/>
<path fill="#FFFFFF" opacity="1.000000" stroke="none" 
	d="
M289.093048,433.480225 
	C356.802643,433.011780 424.439972,432.897400 492.076019,433.141388 
	C500.255859,433.170898 507.187469,431.915802 512.678223,425.091370 
	C513.000000,454.314270 513.000000,483.628540 513.000000,512.943970 
	C342.333313,512.945068 171.666656,512.945068 1.000000,512.945068 
	C1.000000,488.572479 1.000000,464.254913 1.000000,439.468658 
	C5.658514,448.140900 14.387333,449.482483 23.268066,451.073090 
	C42.092590,454.444733 60.824142,458.331940 79.628998,461.817993 
	C96.860619,465.012390 114.162743,467.827759 131.388611,471.051605 
	C146.197571,473.823090 160.913559,477.091797 175.723755,479.856171 
	C192.952591,483.071960 210.259552,485.868042 227.494156,489.054321 
	C240.555557,491.469086 253.581131,494.094238 266.576538,496.843689 
	C276.191467,498.877930 284.493378,495.706482 287.922028,488.054230 
	C288.688354,486.343994 288.945679,484.280029 288.955688,482.376373 
	C289.040466,466.232178 289.013702,450.087402 289.093048,433.480225 
z"/>
<path fill="#FFFFFF" opacity="1.000000" stroke="none" 
	d="
M513.000000,88.531342 
	C512.205200,88.443085 511.211853,88.038734 510.647766,87.304581 
	C506.858856,82.373657 501.880188,80.908333 495.765900,80.919456 
	C427.204773,81.044144 358.643280,80.993843 289.623779,80.986374 
	C289.110535,64.497910 289.056610,48.013664 288.999786,31.529432 
	C288.971039,23.189674 282.747559,16.470688 274.446777,17.145296 
	C264.734924,17.934580 255.074036,19.604595 245.460464,21.288807 
	C231.881714,23.667685 218.362488,26.388515 204.825455,29.002748 
	C191.292297,31.616238 177.787811,34.382320 164.236008,36.894123 
	C145.559372,40.355812 126.830147,43.534866 108.160492,47.032722 
	C89.511986,50.526627 70.918213,54.311577 52.283146,57.878567 
	C39.540363,60.317703 26.785919,62.706333 14.000875,64.909729 
	C7.942202,65.953896 4.246446,69.581764 1.335577,74.894096 
	C1.000000,50.349342 1.000000,25.698687 1.000003,1.053849 
	C171.666672,1.059670 342.333344,1.059670 513.000000,1.059670 
	C513.000000,30.100454 513.000000,59.081570 513.000000,88.531342 
z"/>
<path fill="#F8F9F8" opacity="1.000000" stroke="none" 
	d="
M98.264008,218.745224 
	C93.975304,213.835968 89.875206,209.232697 85.882797,204.537842 
	C79.166977,196.640427 79.467918,187.123718 86.548058,180.966995 
	C93.589806,174.843643 103.093636,175.792862 109.989586,183.590607 
	C122.890533,198.178665 135.655624,212.886871 148.864807,227.988174 
	C150.296326,226.253998 151.563828,224.794006 152.749680,223.270493 
	C167.069763,204.872726 181.366516,186.456802 195.695877,168.066284 
	C199.929962,162.632187 205.424438,159.931900 212.327515,161.464844 
	C218.945389,162.934418 223.090683,167.257233 224.607513,173.858521 
	C225.909531,179.524933 223.693970,184.216019 220.255386,188.618301 
	C204.674042,208.566544 189.172058,228.576767 173.646576,248.568619 
	C172.642883,249.861053 171.681870,251.186646 170.528595,252.727127 
	C182.813782,266.777008 194.970810,280.680511 207.128067,294.583832 
	C211.514084,299.599762 215.967545,304.558624 220.271362,309.644135 
	C226.794952,317.352570 226.493973,326.683807 219.645309,332.850830 
	C212.698395,339.106323 203.058731,338.322662 196.214828,330.596771 
	C182.076431,314.636322 168.098633,298.533600 154.048309,282.495056 
	C152.959122,281.251740 151.819336,280.052704 150.381805,278.482056 
	C143.178223,287.720184 136.133072,296.742950 129.101501,305.776276 
	C122.657387,314.054901 116.353218,322.446411 109.751129,330.596832 
	C104.749146,336.771912 97.621758,338.509430 90.944016,335.696381 
	C84.459518,332.964752 80.121391,326.619232 81.218735,319.880798 
	C81.803497,316.289917 83.541313,312.538544 85.758606,309.618988 
	C98.951904,292.247528 112.439674,275.099701 125.819672,257.869873 
	C126.827446,256.572113 127.766197,255.220764 128.850998,253.738602 
	C118.637230,242.051285 108.569130,230.530655 98.264008,218.745224 
z"/>
<path fill="#398E3D" opacity="1.000000" stroke="none" 
	d="
M289.042175,145.357086 
	C304.845764,144.922653 320.639130,144.838333 336.428650,145.046494 
	C348.511993,145.205795 356.284668,156.446640 351.721680,167.096786 
	C348.893066,173.698807 343.546295,176.960464 336.362518,176.983765 
	C320.901642,177.033890 305.440552,177.012238 289.516785,177.069427 
	C289.046112,166.690277 289.038239,156.261642 289.042175,145.357086 
z"/>
<path fill="#398E3D" opacity="1.000000" stroke="none" 
	d="
M289.042206,209.357086 
	C304.845764,208.922653 320.639130,208.838303 336.428650,209.046463 
	C348.511993,209.205765 356.284668,220.446640 351.721680,231.096786 
	C348.893097,237.698807 343.546295,240.960464 336.362518,240.983765 
	C320.901642,241.033890 305.440552,241.012238 289.516785,241.069427 
	C289.046112,230.690277 289.038239,220.261642 289.042206,209.357086 
z"/>
<path fill="#398E3D" opacity="1.000000" stroke="none" 
	d="
M289.042236,273.357117 
	C304.845795,272.922638 320.639160,272.838287 336.428680,273.046448 
	C348.511993,273.205719 356.284637,284.446594 351.721680,295.096832 
	C348.893097,301.698883 343.546234,304.960510 336.362488,304.983795 
	C320.901611,305.033905 305.440552,305.012238 289.516785,305.069427 
	C289.046112,294.690277 289.038239,284.261688 289.042236,273.357117 
z"/>
<path fill="#398E3D" opacity="1.000000" stroke="none" 
	d="
M289.042236,337.357117 
	C304.845795,336.922668 320.639160,336.838379 336.428680,337.046509 
	C348.511993,337.205780 356.284637,348.446594 351.721680,359.096802 
	C348.893097,365.698883 343.546234,368.960510 336.362488,368.983795 
	C320.901611,369.033905 305.440552,369.012238 289.516785,369.069427 
	C289.046143,358.690277 289.038269,348.261688 289.042236,337.357117 
z"/>
<path fill="#3A8F3E" opacity="1.000000" stroke="none" 
	d="
M421.992554,144.995880 
	C426.153900,145.008804 429.825012,144.869629 433.478302,145.064926 
	C442.304474,145.536758 448.911652,152.361862 448.973450,160.883606 
	C449.036682,169.603943 442.261261,176.743637 433.236206,176.929504 
	C422.417786,177.152313 411.587769,177.151825 400.769318,176.929901 
	C391.743042,176.744736 384.966248,169.609085 385.026581,160.889130 
	C385.085541,152.367828 391.688690,145.436020 400.516632,145.087738 
	C407.499512,144.812241 414.501007,145.008911 421.992554,144.995880 
z"/>
<path fill="#3A8F3E" opacity="1.000000" stroke="none" 
	d="
M448.952820,225.827393 
	C447.001556,236.218933 441.456940,240.936310 431.429077,240.991501 
	C421.625458,241.045486 411.820679,241.071869 402.017578,240.982574 
	C392.197876,240.893143 385.132935,234.249619 385.026581,225.192810 
	C384.917816,215.928528 392.049835,209.112427 402.154144,209.018295 
	C412.123383,208.925415 422.095093,208.911209 432.063934,209.022995 
	C442.111908,209.135666 448.252136,215.182861 448.952820,225.827393 
z"/>
<path fill="#3A8F3E" opacity="1.000000" stroke="none" 
	d="
M389.224060,278.264771 
	C393.085480,274.366028 397.500671,272.933838 402.566803,272.974426 
	C412.209930,273.051727 421.854462,272.943604 431.497742,273.011566 
	C441.755219,273.083862 448.893829,279.614624 448.973419,288.861053 
	C449.054657,298.293823 441.818909,304.939087 431.300537,304.993042 
	C421.657074,305.042542 412.012848,304.959259 402.369476,305.017609 
	C395.456573,305.059418 390.017517,302.452942 386.829529,296.193268 
	C383.638641,289.927917 384.598145,283.978180 389.224060,278.264771 
z"/>
<path fill="#3A8F3E" opacity="1.000000" stroke="none" 
	d="
M431.732422,369.002625 
	C421.770355,369.003693 412.275482,369.039825 402.781067,368.994110 
	C392.200256,368.943146 384.963776,362.344391 385.026581,352.893768 
	C385.088135,343.627472 392.233826,337.083038 402.517548,337.011383 
	C412.178345,336.944061 421.840302,336.944214 431.501099,337.011566 
	C441.574860,337.081757 448.636536,343.366272 448.964935,352.412903 
	C449.301300,361.678467 442.526489,368.381958 431.732422,369.002625 
z"/>
</svg>