<?xml version="1.0" encoding="UTF-8"?>
<!DOCTYPE svg PUBLIC "-//W3C//DTD SVG 1.1//EN" "http://www.w3.org/Graphics/SVG/1.1/DTD/svg11.dtd">
<svg xmlns="http://www.w3.org/2000/svg" version="1.1" width="480px" height="480px" style="shape-rendering:geometricPrecision; text-rendering:geometricPrecision; image-rendering:optimizeQuality; fill-rule:evenodd; clip-rule:evenodd" xmlns:xlink="http://www.w3.org/1999/xlink">
<g><path style="opacity:0.996" fill="#65ba69" d="M 409.5,126.5 C 369.539,160.788 329.539,195.121 289.5,229.5C 266.167,202.833 242.833,176.167 219.5,149.5C 229.806,139.86 239.806,129.86 249.5,119.5C 264.819,134.319 279.986,149.319 295,164.5C 323.533,137.632 352.367,111.132 381.5,85C 385.107,81.9023 388.107,78.4023 390.5,74.5C 399.893,66.0521 409.393,57.7187 419,49.5C 426.227,64.8228 432.894,80.4895 439,96.5C 439.667,97.8333 439.667,99.1667 439,100.5C 428.973,109.032 419.14,117.699 409.5,126.5 Z"/></g>
<g><path style="opacity:1" fill="#78909c" d="M 367.5,69.5 C 344.148,92.5178 320.148,114.851 295.5,136.5C 280.167,121.5 264.833,106.5 249.5,91.5C 230.514,109.986 211.681,128.653 193,147.5C 192.333,148.167 192.333,148.833 193,149.5C 224.314,185.648 255.814,221.648 287.5,257.5C 328.186,222.477 368.853,187.477 409.5,152.5C 409.667,231.167 409.5,309.834 409,388.5C 404.833,404.667 394.667,414.833 378.5,419C 282.5,419.667 186.5,419.667 90.5,419C 74.3333,414.833 64.1667,404.667 60,388.5C 59.3333,292.5 59.3333,196.5 60,100.5C 64.1667,84.3333 74.3333,74.1667 90.5,70C 182.833,69.5 275.166,69.3333 367.5,69.5 Z"/></g>
<g><path style="opacity:1" fill="#455a64" d="M 367.5,69.5 C 375.72,68.8061 383.386,70.4728 390.5,74.5C 388.107,78.4023 385.107,81.9023 381.5,85C 352.367,111.132 323.533,137.632 295,164.5C 279.986,149.319 264.819,134.319 249.5,119.5C 239.806,129.86 229.806,139.86 219.5,149.5C 242.833,176.167 266.167,202.833 289.5,229.5C 329.539,195.121 369.539,160.788 409.5,126.5C 409.5,135.167 409.5,143.833 409.5,152.5C 368.853,187.477 328.186,222.477 287.5,257.5C 255.814,221.648 224.314,185.648 193,149.5C 192.333,148.833 192.333,148.167 193,147.5C 211.681,128.653 230.514,109.986 249.5,91.5C 264.833,106.5 280.167,121.5 295.5,136.5C 320.148,114.851 344.148,92.5178 367.5,69.5 Z"/></g>
<g><path style="opacity:1" fill="#fdfdfe" d="M 134.5,249.5 C 151.598,247.276 167.598,250.443 182.5,259C 192.745,266.661 198.412,276.828 199.5,289.5C 188.167,289.5 176.833,289.5 165.5,289.5C 165.662,287.473 165.495,285.473 165,283.5C 158.118,274.952 149.284,272.119 138.5,275C 130.016,277.459 126.516,282.959 128,291.5C 130.167,295 133,297.833 136.5,300C 150.74,305.08 164.74,310.747 178.5,317C 200.308,331.067 205.142,349.567 193,372.5C 183.941,382.113 172.774,387.613 159.5,389C 139.888,391.879 121.888,387.879 105.5,377C 94.4461,367.023 89.1128,354.523 89.5,339.5C 100.833,339.5 112.167,339.5 123.5,339.5C 123.703,360.807 134.37,368.974 155.5,364C 164.332,360.88 167.498,354.713 165,345.5C 162.26,341.042 158.427,337.875 153.5,336C 138.024,331.402 123.357,325.068 109.5,317C 91.2731,302.097 88.7731,284.93 102,265.5C 111.391,257.054 122.224,251.721 134.5,249.5 Z"/></g>
<g><path style="opacity:1" fill="#fdfefe" d="M 255.5,289.5 C 269.172,288.164 281.839,290.997 293.5,298C 300.758,304.352 305.592,312.186 308,321.5C 309.353,330.775 309.853,340.109 309.5,349.5C 289.833,349.5 270.167,349.5 250.5,349.5C 252.839,360.167 259.505,365.834 270.5,366.5C 279.489,366.344 286.989,363.01 293,356.5C 297.688,361.687 302.188,367.02 306.5,372.5C 299.022,381.58 289.355,387.08 277.5,389C 235.682,390.6 216.515,370.433 220,328.5C 223.407,307.602 235.241,294.602 255.5,289.5 Z"/></g>
<g><path style="opacity:1" fill="#7a929d" d="M 261.5,312.5 C 273.862,311.532 280.196,317.199 280.5,329.5C 270.5,329.5 260.5,329.5 250.5,329.5C 250.668,321.373 254.334,315.706 261.5,312.5 Z"/></g>
</svg>
